# xmcd
#
# Track frame offsets:
#	150
#	18505
#	34937
#	47565
#	58732
#	74457
#	83679
#	95205
#	108680
#	123342
#	140955
#	154127
#
# Disc length: 2224 seconds
#
# Revision: 0
# Processed by: cddbd v1.4PL0 Copyright (c) Steve Scherf et al.
# Submitted via: EasyCDDAExtractor 4.5.0.1
#
DISCID=b008ae0c
DTITLE=KDT's - 12 Rancheras a toda ma...
DYEAR=2003
DGENRE=
TTITLE0=El carrito (Que chin... a su ma...)
TTITLE1=No vuelvo a amar
TTITLE2=El chubasco
TTITLE3=El solterito
TTITLE4=El cerillazo
TTITLE5=Tu vida no me importa
TTITLE6=Ven a buscarme
TTITLE7=Cuando me vaya pa'l norte
TTITLE8=Prenda querida
TTITLE9=La venganza del mojado
TTITLE10=Mi pueblito
TTITLE11=Cruzando el puente
EXTD=
EXTT0=
EXTT1=
EXTT2=
EXTT3=
EXTT4=
EXTT5=
EXTT6=
EXTT7=
EXTT8=
EXTT9=
EXTT10=
EXTT11=
PLAYORDER=
